<svg xmlns="http://www.w3.org/2000/svg" width="963.124" height="832.365" viewBox="0 0 963.124 832.365"><path d="M-2361.312-2536.325c-2.971-1.236-12.71-16.708-21.642-34.382-26.282-52.009-69.915-121.2-101.054-160.247-39.929-50.071-103.678-110.119-151.2-142.425-54.128-36.8-134.915-101.174-166.811-132.929-18.718-18.635-30.761-35.6-41.848-58.944-14.371-30.26-15.569-35.69-15.6-70.667-.043-47.66,11.12-82.517,39.258-122.578,26.617-37.9,49.6-58.024,85.914-75.226,83.941-39.767,197.814-43.995,274.254-10.182,27.526,12.176,66.5,53.385,81.244,85.907,14.414,31.79,15.23,40.436,4.714,49.954-11.567,10.468-16.357,8.636-28.5-10.895-45.271-72.826-97.115-106.388-171.639-111.11-63.576-4.029-113.327,13.264-153.822,53.468-41.744,41.443-60.955,92.789-57.124,152.676,4.03,62.988,31.683,105.494,100.262,154.118,66.931,47.456,138.5,108.855,209.7,179.9,67.348,67.2,86.481,92.075,114,148.208,8.774,17.9,17.331,32.53,19.016,32.521s9.651-12.754,17.7-28.323c18.874-36.5,63.363-83.224,109.062-114.548,59.33-40.667,124.811-95.25,187.429-156.236,49.22-47.936,61.225-62.085,70.818-83.459,41.12-91.628,10.112-192.5-72.524-235.925-66.953-35.183-135.226-37.324-206.9-6.49-27.461,11.814-48.283,35.281-52.164,58.792-3.7,22.446-8.488,28.826-21.614,28.826-32.378,0-.814-67.981,46.762-100.714,29.71-20.441,61.421-29.467,113.418-32.281,38.979-2.11,51.746-1.094,81.866,6.516q130.3,32.918,164.324,144.52c11.217,36.609,9.891,105.474-2.482,128.9-15.546,29.432-46.348,73.115-68.2,96.713-21.991,23.752-37.231,36.7-120.934,102.774-152.907,120.695-172.487,140.562-220.715,223.962-22.829,39.477-30.162,45.966-44.98,39.8Zm107.211-275.381c-9.989-7.649-38.535-63.7-49.268-96.743-5.1-15.687-12.518-46.859-16.5-69.271l-7.23-40.75-43.955,1.5c-46.332,1.583-57.592-2.289-51.655-17.763,2.167-5.647,9.629-6.841,43.1-6.894,22.266-.034,42.82-1.548,45.675-3.362,3.156-2,6.448-19.677,8.4-45.067,3.177-41.4,3.306-41.782,14.6-43.084,13.38-1.543,15.268,3.523,16.915,45.4l1.074,27.289,19.32-.955c16.81-.832,89.783-23,151.629-46.073,14.73-5.495,21.029-6.173,24.557-2.644,10.221,10.221-.574,21.3-37.127,38.1-45.088,20.723-70.427,29.07-117.594,38.739l-36.588,7.5.957,21.979c1.49,34.2,20.478,98.678,42.857,145.529,14.742,30.863,19.1,43.906,15.775,47.23-6.089,6.089-16.5,5.815-24.954-.656Z" transform="translate(2859.467 3366.67)" fill="#ff7e7e"/></svg>